<svg width="40" height="40" viewBox="0 0 40 40" fill="none" xmlns="http://www.w3.org/2000/svg">
<path d="M2 28.1H12.1L12.1 16.1L19.9 16.1V28.7H2L2 28.1ZM19.3 28.1V16.7L12.7 16.7L12.7 28.1H19.3Z" fill="#B4A37C"/>
<path d="M38 28.4H31.8293L34.9613 26.4032L35.1 26.3145V23.3L21.7 23.3V28.7H22.3V23.9L34.5 23.9V25.9852L29.7715 29H38V28.4Z" fill="#B4A37C"/>
<path d="M17.9 22.4387L4.5 24.9512L4.5 28.7H5.1L5.1 25.4493L17.3 23.1618V28.7H17.9V22.4387Z" fill="#B4A37C"/>
<path d="M24.1 24.8H24.7V28.7H24.1V24.8Z" fill="#B4A37C"/>
<path d="M22.9 24.8H23.5V28.7H22.9V24.8Z" fill="#B4A37C"/>
<path d="M25.7 16.1H30.3V23.2H29.7V16.7H26.3V23.2H25.7V16.1Z" fill="#B4A37C"/>
<path d="M19.5203 11.9L16.7 11.9V16H16.1V11.3L19.5203 11.3C20.9034 11.3 22.157 12.1147 22.7188 13.3786L23.9984 16.2579C24.1973 16.7053 24.3 17.1897 24.3 17.6793V23.2H23.7V17.6793C23.7 17.2736 23.6148 16.8724 23.45 16.5016L22.1703 13.6223C21.7048 12.5751 20.6663 11.9 19.5203 11.9Z" fill="#B4A37C"/>
<path d="M14 18H14.6V19.2H14V18Z" fill="#B4A37C"/>
<path d="M17.6 12.8H18.2V13.4H17.6V12.8Z" fill="#B4A37C"/>
<path d="M32 24.8H33.6V25.4H32V24.8Z" fill="#B4A37C"/>
<path d="M27.2 17.6H28.4V18.2H27.2V17.6Z" fill="#B4A37C"/>
<path d="M17.6 14H18.8V14.6H17.6V14Z" fill="#B4A37C"/>
</svg>
