<svg width="1742" height="458" viewBox="0 0 1742 458" fill="none" xmlns="http://www.w3.org/2000/svg">
<path d="M0.235108 457C0.235108 457 424.763 354.315 628.763 20.8153C814.98 49.6981 642.263 73.8154 783.763 155.315C925.263 236.815 922.763 367.815 1136.76 224.815C1192.76 179.815 1538.76 80.3153 1739.76 125.315" stroke="#898989" stroke-width="2" stroke-dasharray="8 8"/>
<path d="M1217.57 263L1221.99 254.278H1216.17V253.2H1223.28V254.166L1218.9 263H1217.57Z" fill="#898989"/>
<path d="M1210.58 263.168C1209.88 263.168 1209.27 263.047 1208.76 262.804C1208.25 262.552 1207.85 262.216 1207.55 261.796C1207.25 261.367 1207.07 260.881 1206.99 260.34H1208.22C1208.34 260.863 1208.6 261.287 1209.01 261.614C1209.43 261.931 1209.94 262.09 1210.55 262.09C1211.07 262.09 1211.51 261.987 1211.86 261.782C1212.22 261.567 1212.49 261.278 1212.68 260.914C1212.86 260.55 1212.96 260.139 1212.96 259.682C1212.96 258.982 1212.75 258.413 1212.33 257.974C1211.91 257.535 1211.33 257.316 1210.59 257.316C1210.07 257.316 1209.61 257.433 1209.22 257.666C1208.83 257.899 1208.54 258.203 1208.35 258.576H1207.19L1208.03 253.2H1213.46V254.306H1208.99L1208.35 257.708L1208.25 257.386C1208.47 257.069 1208.78 256.803 1209.2 256.588C1209.63 256.373 1210.15 256.266 1210.76 256.266C1211.46 256.266 1212.06 256.415 1212.56 256.714C1213.08 257.013 1213.47 257.419 1213.75 257.932C1214.03 258.445 1214.17 259.024 1214.17 259.668C1214.17 260.312 1214.03 260.9 1213.75 261.432C1213.47 261.955 1213.06 262.375 1212.52 262.692C1211.99 263.009 1211.34 263.168 1210.58 263.168Z" fill="#898989"/>
<path d="M1202.42 263V260.928H1197.3V259.962L1202.23 253.2H1203.63V259.836H1205.06V260.928H1203.63V263H1202.42ZM1202.48 260.396V254.026L1202.79 254.124L1198.35 260.312L1198.13 259.836H1203.01L1202.48 260.396Z" fill="#898989"/>
<path d="M1192.34 263.168C1191.51 263.168 1190.8 262.963 1190.22 262.552C1189.65 262.132 1189.21 261.544 1188.91 260.788C1188.61 260.032 1188.46 259.136 1188.46 258.1C1188.46 257.064 1188.61 256.168 1188.91 255.412C1189.21 254.656 1189.65 254.073 1190.22 253.662C1190.8 253.242 1191.51 253.032 1192.34 253.032C1193.18 253.032 1193.88 253.242 1194.45 253.662C1195.03 254.073 1195.47 254.656 1195.77 255.412C1196.07 256.168 1196.22 257.064 1196.22 258.1C1196.22 259.136 1196.07 260.032 1195.77 260.788C1195.47 261.544 1195.03 262.132 1194.45 262.552C1193.88 262.963 1193.18 263.168 1192.34 263.168ZM1192.34 262.048C1193.22 262.048 1193.88 261.707 1194.3 261.026C1194.72 260.335 1194.93 259.36 1194.93 258.1C1194.93 256.849 1194.72 255.879 1194.3 255.188C1193.88 254.497 1193.22 254.152 1192.34 254.152C1191.45 254.152 1190.8 254.497 1190.38 255.188C1189.96 255.879 1189.75 256.849 1189.75 258.1C1189.75 259.36 1189.96 260.335 1190.38 261.026C1190.8 261.707 1191.45 262.048 1192.34 262.048Z" fill="#898989"/>
<path d="M1179.82 263V262.398C1179.82 261.586 1179.94 260.919 1180.18 260.396C1180.42 259.873 1180.76 259.444 1181.19 259.108C1181.63 258.763 1182.14 258.459 1182.71 258.198L1183.47 257.862C1184.09 257.582 1184.56 257.302 1184.88 257.022C1185.21 256.733 1185.37 256.341 1185.37 255.846C1185.37 255.547 1185.31 255.267 1185.18 255.006C1185.05 254.735 1184.83 254.521 1184.53 254.362C1184.25 254.194 1183.86 254.11 1183.37 254.11C1182.89 254.11 1182.49 254.203 1182.17 254.39C1181.85 254.577 1181.61 254.824 1181.45 255.132C1181.3 255.431 1181.22 255.767 1181.22 256.14H1180C1180 255.477 1180.15 254.917 1180.45 254.46C1180.75 253.993 1181.15 253.639 1181.65 253.396C1182.16 253.153 1182.74 253.032 1183.39 253.032C1184.01 253.032 1184.56 253.139 1185.04 253.354C1185.52 253.559 1185.91 253.867 1186.19 254.278C1186.48 254.689 1186.62 255.193 1186.62 255.79C1186.62 256.481 1186.41 257.064 1185.99 257.54C1185.57 258.007 1184.99 258.417 1184.24 258.772L1182.99 259.346C1182.48 259.579 1182.09 259.831 1181.82 260.102C1181.55 260.373 1181.36 260.662 1181.26 260.97C1181.16 261.278 1181.1 261.605 1181.1 261.95H1186.77V263H1179.82Z" fill="#898989"/>
<path d="M1174.15 263.168C1173.41 263.168 1172.75 263.056 1172.18 262.832C1171.62 262.599 1171.17 262.253 1170.84 261.796C1170.51 261.329 1170.34 260.755 1170.32 260.074H1171.58C1171.58 260.438 1171.68 260.774 1171.87 261.082C1172.07 261.381 1172.36 261.623 1172.74 261.81C1173.12 261.987 1173.59 262.076 1174.15 262.076C1174.9 262.076 1175.47 261.894 1175.85 261.53C1176.23 261.157 1176.42 260.704 1176.42 260.172C1176.42 259.733 1176.31 259.374 1176.07 259.094C1175.84 258.805 1175.52 258.595 1175.12 258.464C1174.72 258.324 1174.28 258.254 1173.79 258.254H1172.81V257.204H1173.8C1174.5 257.204 1175.04 257.064 1175.43 256.784C1175.83 256.504 1176.03 256.107 1176.03 255.594C1176.03 255.165 1175.87 254.815 1175.55 254.544C1175.24 254.264 1174.77 254.124 1174.15 254.124C1173.46 254.124 1172.93 254.283 1172.56 254.6C1172.19 254.908 1171.99 255.3 1171.96 255.776H1170.68C1170.71 255.225 1170.86 254.749 1171.13 254.348C1171.41 253.937 1171.81 253.615 1172.32 253.382C1172.83 253.149 1173.45 253.032 1174.15 253.032C1174.85 253.032 1175.42 253.144 1175.89 253.368C1176.36 253.592 1176.71 253.895 1176.94 254.278C1177.18 254.651 1177.3 255.062 1177.3 255.51C1177.3 256.005 1177.16 256.457 1176.86 256.868C1176.57 257.279 1176.14 257.549 1175.57 257.68C1176.18 257.801 1176.68 258.077 1177.08 258.506C1177.49 258.935 1177.7 259.495 1177.7 260.186C1177.7 260.727 1177.56 261.222 1177.29 261.67C1177.02 262.118 1176.62 262.482 1176.1 262.762C1175.58 263.033 1174.93 263.168 1174.15 263.168Z" fill="#898989"/>
<path d="M1167.16 263V261.334H1168.87V263H1167.16Z" fill="#898989"/>
<path d="M1161.92 263.168C1161.22 263.168 1160.61 263.047 1160.1 262.804C1159.59 262.552 1159.19 262.216 1158.89 261.796C1158.6 261.367 1158.41 260.881 1158.33 260.34H1159.57C1159.68 260.863 1159.94 261.287 1160.35 261.614C1160.77 261.931 1161.28 262.09 1161.89 262.09C1162.41 262.09 1162.85 261.987 1163.21 261.782C1163.56 261.567 1163.83 261.278 1164.02 260.914C1164.21 260.55 1164.3 260.139 1164.3 259.682C1164.3 258.982 1164.09 258.413 1163.67 257.974C1163.25 257.535 1162.67 257.316 1161.93 257.316C1161.41 257.316 1160.95 257.433 1160.56 257.666C1160.17 257.899 1159.88 258.203 1159.69 258.576H1158.53L1159.37 253.2H1164.8V254.306H1160.34L1159.69 257.708L1159.59 257.386C1159.81 257.069 1160.13 256.803 1160.55 256.588C1160.98 256.373 1161.49 256.266 1162.1 256.266C1162.8 256.266 1163.4 256.415 1163.91 256.714C1164.42 257.013 1164.82 257.419 1165.1 257.932C1165.38 258.445 1165.52 259.024 1165.52 259.668C1165.52 260.312 1165.38 260.9 1165.1 261.432C1164.82 261.955 1164.41 262.375 1163.86 262.692C1163.33 263.009 1162.68 263.168 1161.92 263.168Z" fill="#898989"/>
<path d="M1153.77 263V260.928H1148.64V259.962L1153.57 253.2H1154.97V259.836H1156.4V260.928H1154.97V263H1153.77ZM1153.82 260.396V254.026L1154.13 254.124L1149.69 260.312L1149.47 259.836H1154.35L1153.82 260.396Z" fill="#898989"/>
<path d="M1224.73 246.198V245.12H1225.09C1225.22 245.12 1225.32 245.083 1225.4 245.008C1225.47 244.933 1225.51 244.821 1225.51 244.672V244.084H1224.85V242.404H1226.6V244.672C1226.6 245.101 1226.47 245.461 1226.21 245.75C1225.96 246.049 1225.59 246.198 1225.11 246.198H1224.73Z" fill="#898989"/>
<path d="M1219.32 243.482V236.454H1216.53V235.53L1218.73 235.376C1218.91 235.357 1219.05 235.301 1219.15 235.208C1219.26 235.105 1219.32 234.965 1219.32 234.788V234.2H1220.59V243.482H1219.32ZM1216.2 244V242.95H1223.48V244H1216.2Z" fill="#898989"/>
<path d="M1210.55 244.168C1209.72 244.168 1209.01 243.963 1208.43 243.552C1207.86 243.132 1207.42 242.544 1207.12 241.788C1206.82 241.032 1206.67 240.136 1206.67 239.1C1206.67 238.064 1206.82 237.168 1207.12 236.412C1207.42 235.656 1207.86 235.073 1208.43 234.662C1209.01 234.242 1209.72 234.032 1210.55 234.032C1211.39 234.032 1212.09 234.242 1212.66 234.662C1213.24 235.073 1213.68 235.656 1213.98 236.412C1214.28 237.168 1214.43 238.064 1214.43 239.1C1214.43 240.136 1214.28 241.032 1213.98 241.788C1213.68 242.544 1213.24 243.132 1212.66 243.552C1212.09 243.963 1211.39 244.168 1210.55 244.168ZM1210.55 243.048C1211.44 243.048 1212.09 242.707 1212.51 242.026C1212.93 241.335 1213.14 240.36 1213.14 239.1C1213.14 237.849 1212.93 236.879 1212.51 236.188C1212.09 235.497 1211.44 235.152 1210.55 235.152C1209.66 235.152 1209.01 235.497 1208.59 236.188C1208.17 236.879 1207.96 237.849 1207.96 239.1C1207.96 240.36 1208.17 241.335 1208.59 242.026C1209.01 242.707 1209.66 243.048 1210.55 243.048Z" fill="#898989"/>
<path d="M1201.44 244.168C1200.61 244.168 1199.91 243.963 1199.33 243.552C1198.75 243.132 1198.31 242.544 1198.01 241.788C1197.71 241.032 1197.57 240.136 1197.57 239.1C1197.57 238.064 1197.71 237.168 1198.01 236.412C1198.31 235.656 1198.75 235.073 1199.33 234.662C1199.91 234.242 1200.61 234.032 1201.44 234.032C1202.28 234.032 1202.99 234.242 1203.56 234.662C1204.14 235.073 1204.57 235.656 1204.87 236.412C1205.17 237.168 1205.32 238.064 1205.32 239.1C1205.32 240.136 1205.17 241.032 1204.87 241.788C1204.57 242.544 1204.14 243.132 1203.56 243.552C1202.99 243.963 1202.28 244.168 1201.44 244.168ZM1201.44 243.048C1202.33 243.048 1202.98 242.707 1203.4 242.026C1203.82 241.335 1204.03 240.36 1204.03 239.1C1204.03 237.849 1203.82 236.879 1203.4 236.188C1202.98 235.497 1202.33 235.152 1201.44 235.152C1200.56 235.152 1199.9 235.497 1199.48 236.188C1199.06 236.879 1198.85 237.849 1198.85 239.1C1198.85 240.36 1199.06 241.335 1199.48 242.026C1199.9 242.707 1200.56 243.048 1201.44 243.048Z" fill="#898989"/>
<path d="M1193.32 244V241.928H1188.19V240.962L1193.12 234.2H1194.52V240.836H1195.95V241.928H1194.52V244H1193.32ZM1193.37 241.396V235.026L1193.68 235.124L1189.24 241.312L1189.02 240.836H1193.91L1193.37 241.396Z" fill="#898989"/>
<path d="M1183.26 244.168C1182.51 244.168 1181.86 244.056 1181.29 243.832C1180.73 243.599 1180.28 243.253 1179.94 242.796C1179.62 242.329 1179.44 241.755 1179.42 241.074H1180.68C1180.68 241.438 1180.78 241.774 1180.98 242.082C1181.17 242.381 1181.46 242.623 1181.85 242.81C1182.23 242.987 1182.7 243.076 1183.26 243.076C1184.01 243.076 1184.57 242.894 1184.95 242.53C1185.34 242.157 1185.53 241.704 1185.53 241.172C1185.53 240.733 1185.41 240.374 1185.18 240.094C1184.94 239.805 1184.63 239.595 1184.23 239.464C1183.82 239.324 1183.38 239.254 1182.9 239.254H1181.92V238.204H1182.91C1183.6 238.204 1184.14 238.064 1184.53 237.784C1184.94 237.504 1185.14 237.107 1185.14 236.594C1185.14 236.165 1184.98 235.815 1184.66 235.544C1184.34 235.264 1183.88 235.124 1183.26 235.124C1182.57 235.124 1182.04 235.283 1181.66 235.6C1181.3 235.908 1181.1 236.3 1181.06 236.776H1179.79C1179.82 236.225 1179.97 235.749 1180.24 235.348C1180.52 234.937 1180.91 234.615 1181.43 234.382C1181.94 234.149 1182.55 234.032 1183.26 234.032C1183.95 234.032 1184.53 234.144 1185 234.368C1185.46 234.592 1185.81 234.895 1186.05 235.278C1186.29 235.651 1186.41 236.062 1186.41 236.51C1186.41 237.005 1186.26 237.457 1185.96 237.868C1185.67 238.279 1185.24 238.549 1184.67 238.68C1185.28 238.801 1185.78 239.077 1186.19 239.506C1186.6 239.935 1186.8 240.495 1186.8 241.186C1186.8 241.727 1186.67 242.222 1186.4 242.67C1186.13 243.118 1185.73 243.482 1185.21 243.762C1184.68 244.033 1184.03 244.168 1183.26 244.168Z" fill="#898989"/>
<path d="M1174.13 244.168C1173.44 244.168 1172.82 244.051 1172.26 243.818C1171.72 243.575 1171.29 243.244 1170.98 242.824C1170.66 242.395 1170.5 241.895 1170.5 241.326C1170.5 240.934 1170.58 240.565 1170.75 240.22C1170.92 239.865 1171.15 239.562 1171.45 239.31C1171.75 239.058 1172.1 238.881 1172.5 238.778C1171.95 238.591 1171.53 238.302 1171.23 237.91C1170.93 237.518 1170.78 237.093 1170.78 236.636C1170.78 236.16 1170.91 235.726 1171.17 235.334C1171.43 234.942 1171.81 234.629 1172.31 234.396C1172.81 234.153 1173.42 234.032 1174.13 234.032C1174.84 234.032 1175.44 234.153 1175.93 234.396C1176.44 234.629 1176.82 234.942 1177.08 235.334C1177.34 235.726 1177.47 236.16 1177.47 236.636C1177.47 237.093 1177.32 237.518 1177.02 237.91C1176.73 238.302 1176.3 238.591 1175.75 238.778C1176.15 238.881 1176.5 239.058 1176.8 239.31C1177.11 239.562 1177.34 239.865 1177.5 240.22C1177.67 240.565 1177.75 240.934 1177.75 241.326C1177.75 241.895 1177.59 242.395 1177.28 242.824C1176.96 243.244 1176.53 243.575 1175.97 243.818C1175.43 244.051 1174.82 244.168 1174.13 244.168ZM1174.13 243.076C1174.92 243.076 1175.51 242.913 1175.9 242.586C1176.3 242.259 1176.49 241.811 1176.49 241.242C1176.49 240.617 1176.28 240.15 1175.86 239.842C1175.44 239.525 1174.86 239.366 1174.13 239.366C1173.39 239.366 1172.81 239.525 1172.39 239.842C1171.97 240.15 1171.76 240.617 1171.76 241.242C1171.76 241.811 1171.96 242.259 1172.35 242.586C1172.74 242.913 1173.33 243.076 1174.13 243.076ZM1174.13 238.344C1174.78 238.344 1175.29 238.199 1175.67 237.91C1176.04 237.611 1176.23 237.219 1176.23 236.734C1176.23 236.193 1176.04 235.787 1175.67 235.516C1175.3 235.245 1174.79 235.11 1174.13 235.11C1173.46 235.11 1172.95 235.245 1172.57 235.516C1172.21 235.787 1172.03 236.193 1172.03 236.734C1172.03 237.219 1172.21 237.611 1172.59 237.91C1172.96 238.199 1173.47 238.344 1174.13 238.344Z" fill="#898989"/>
<path d="M1165.02 244.168C1164.19 244.168 1163.49 243.963 1162.91 243.552C1162.33 243.132 1161.89 242.544 1161.59 241.788C1161.29 241.032 1161.14 240.136 1161.14 239.1C1161.14 238.064 1161.29 237.168 1161.59 236.412C1161.89 235.656 1162.33 235.073 1162.91 234.662C1163.49 234.242 1164.19 234.032 1165.02 234.032C1165.86 234.032 1166.57 234.242 1167.14 234.662C1167.71 235.073 1168.15 235.656 1168.45 236.412C1168.75 237.168 1168.9 238.064 1168.9 239.1C1168.9 240.136 1168.75 241.032 1168.45 241.788C1168.15 242.544 1167.71 243.132 1167.14 243.552C1166.57 243.963 1165.86 244.168 1165.02 244.168ZM1165.02 243.048C1165.91 243.048 1166.56 242.707 1166.98 242.026C1167.4 241.335 1167.61 240.36 1167.61 239.1C1167.61 237.849 1167.4 236.879 1166.98 236.188C1166.56 235.497 1165.91 235.152 1165.02 235.152C1164.13 235.152 1163.48 235.497 1163.06 236.188C1162.64 236.879 1162.43 237.849 1162.43 239.1C1162.43 240.36 1162.64 241.335 1163.06 242.026C1163.48 242.707 1164.13 243.048 1165.02 243.048Z" fill="#898989"/>
<path d="M1158.05 244V242.334H1159.76V244H1158.05Z" fill="#898989"/>
<path d="M1152.79 244.168C1151.95 244.168 1151.25 243.963 1150.67 243.552C1150.09 243.132 1149.65 242.544 1149.36 241.788C1149.06 241.032 1148.91 240.136 1148.91 239.1C1148.91 238.064 1149.06 237.168 1149.36 236.412C1149.65 235.656 1150.09 235.073 1150.67 234.662C1151.25 234.242 1151.95 234.032 1152.79 234.032C1153.63 234.032 1154.33 234.242 1154.9 234.662C1155.48 235.073 1155.92 235.656 1156.22 236.412C1156.51 237.168 1156.66 238.064 1156.66 239.1C1156.66 240.136 1156.51 241.032 1156.22 241.788C1155.92 242.544 1155.48 243.132 1154.9 243.552C1154.33 243.963 1153.63 244.168 1152.79 244.168ZM1152.79 243.048C1153.67 243.048 1154.33 242.707 1154.75 242.026C1155.17 241.335 1155.38 240.36 1155.38 239.1C1155.38 237.849 1155.17 236.879 1154.75 236.188C1154.33 235.497 1153.67 235.152 1152.79 235.152C1151.9 235.152 1151.25 235.497 1150.83 236.188C1150.41 236.879 1150.2 237.849 1150.2 239.1C1150.2 240.36 1150.41 241.335 1150.83 242.026C1151.25 242.707 1151.9 243.048 1152.79 243.048Z" fill="#898989"/>
<path d="M603.34 13.9998V4.19983H604.6L609.738 11.9138V4.19983H610.998V13.9998H609.738L604.6 6.27183V13.9998H603.34Z" fill="#898989"/>
<path d="M595.997 13.9998V4.19983H597.257V12.9918H601.793V13.9998H595.997Z" fill="#898989"/>
<path d="M590.139 14.1679C589.131 14.1679 588.259 13.9579 587.521 13.5379C586.793 13.1179 586.229 12.5345 585.827 11.7879C585.435 11.0319 585.239 10.1639 585.239 9.18386C585.239 8.16653 585.435 7.27053 585.827 6.49586C586.219 5.72119 586.77 5.11919 587.479 4.68986C588.198 4.25119 589.047 4.03186 590.027 4.03186C591.129 4.03186 592.048 4.29786 592.785 4.82986C593.523 5.36186 593.999 6.09919 594.213 7.04186H592.771C592.631 6.47253 592.323 6.02453 591.847 5.69786C591.381 5.36186 590.774 5.19386 590.027 5.19386C589.309 5.19386 588.688 5.35253 588.165 5.66986C587.652 5.98719 587.251 6.44919 586.961 7.05586C586.672 7.65319 586.527 8.36719 586.527 9.19786C586.527 9.99119 586.677 10.6772 586.975 11.2559C587.274 11.8252 587.689 12.2685 588.221 12.5859C588.763 12.8939 589.397 13.0479 590.125 13.0479C591.087 13.0479 591.843 12.7632 592.393 12.1939C592.953 11.6152 593.247 10.8079 593.275 9.77186H590.265V8.73586H594.521V9.22586C594.521 10.2899 594.335 11.1905 593.961 11.9279C593.597 12.6559 593.084 13.2112 592.421 13.5939C591.768 13.9765 591.007 14.1679 590.139 14.1679Z" fill="#898989"/>
<circle cx="1128.74" cy="229.5" r="7.5" fill="#898989"/>
<circle cx="629.735" cy="21.5" r="7.5" fill="#898989"/>
</svg>
