<svg width="40" height="40" viewBox="0 0 40 40" fill="none" xmlns="http://www.w3.org/2000/svg">
<path d="M18.1 22.3782C18.1 21.6603 17.518 21.0782 16.8 21.0782C16.082 21.0782 15.5 21.6603 15.5 22.3782C15.5 23.0962 16.082 23.6782 16.8 23.6782C17.518 23.6782 18.1 23.0962 18.1 22.3782ZM18.7 22.3782C18.7 23.4276 17.8493 24.2782 16.8 24.2782C15.7507 24.2782 14.9 23.4276 14.9 22.3782C14.9 21.3289 15.7507 20.4782 16.8 20.4782C17.8493 20.4782 18.7 21.3289 18.7 22.3782Z" fill="#B4A37C"/>
<path d="M20.1 22.1782C20.1 21.3159 19.8002 20.706 19.3137 20.3056C18.8186 19.898 18.0941 19.6782 17.2 19.6782C16.305 19.6782 15.4697 19.8989 14.8676 20.32C14.2758 20.734 13.9 21.3454 13.9 22.1782C13.9 22.9995 14.3657 23.771 15.084 24.3485C15.8018 24.9256 16.7366 25.2782 17.6 25.2782C18.4473 25.2782 19.0577 24.9397 19.4648 24.4013C19.8797 23.8526 20.1 23.0727 20.1 22.1782ZM20.7 22.1782C20.7 23.1615 20.459 24.0815 19.9434 24.7634C19.4199 25.4555 18.6304 25.8782 17.6 25.8782C16.5856 25.8782 15.5206 25.4696 14.7078 24.8161C13.8956 24.1631 13.3 23.2347 13.3 22.1782C13.3 21.1333 13.7852 20.3448 14.5238 19.8282C15.2522 19.3188 16.2172 19.0782 17.2 19.0782C18.1836 19.0782 19.0595 19.3193 19.6949 19.8423C20.339 20.3724 20.7 21.1628 20.7 22.1782Z" fill="#B4A37C"/>
<path d="M22.1 22.1329C22.1 20.7809 21.7841 19.8354 21.166 19.2239C20.5472 18.6118 19.5689 18.2782 18.1176 18.2782C16.6668 18.2782 15.2993 18.612 14.3047 19.2618C13.3205 19.9049 12.7 20.855 12.7 22.1329C12.7 23.3998 13.4684 24.5819 14.6383 25.4606C15.8059 26.3377 17.3319 26.8782 18.7531 26.8782C20.1528 26.8782 20.9585 26.3575 21.4363 25.5481C21.9325 24.7077 22.1 23.5148 22.1 22.1329ZM22.7 22.1329C22.7 23.5374 22.5349 24.8677 21.9531 25.8532C21.3531 26.8696 20.3354 27.4782 18.7531 27.4782C17.192 27.4782 15.541 26.8893 14.2777 25.9403C13.0168 24.9931 12.1 23.6524 12.1 22.1329C12.1001 20.6246 12.8472 19.4972 13.9762 18.7595C15.0947 18.0286 16.5862 17.6782 18.1176 17.6782C19.6485 17.6782 20.8115 18.0288 21.5883 18.7974C22.3658 19.5666 22.7 20.6987 22.7 22.1329Z" fill="#B4A37C"/>
<path d="M24.1 21.1782C24.1 19.377 23.4694 18.0674 22.4176 17.2017C21.3572 16.3289 19.833 15.8782 18 15.8782C14.3723 15.8782 11.5 18.2238 11.5 21.7782C11.5 25.3148 14.9513 27.8782 18.6 27.8782C20.3807 27.8782 21.7443 27.1134 22.6703 25.904C23.6023 24.6868 24.1 23.0053 24.1 21.1782ZM24.7 21.1782C24.7 23.1066 24.1755 24.925 23.1465 26.2689C22.1114 27.6206 20.5748 28.4782 18.6 28.4782C14.7376 28.4782 10.9 25.7527 10.9 21.7782C10.9 17.8216 14.1166 15.2782 18 15.2782C19.9225 15.2782 21.5981 15.7501 22.7988 16.7384C24.0082 17.7338 24.7 19.2239 24.7 21.1782Z" fill="#B4A37C"/>
<path d="M25.7 20.9114C25.7 18.7013 24.5286 16.7988 22.7664 15.4388C21.0024 14.0774 18.667 13.2782 16.4 13.2782C14.167 13.2782 12.5576 14.2356 11.4957 15.7454C10.4252 17.2676 9.9 19.3698 9.9 21.6544C9.9 23.8645 11.0712 25.7648 12.8332 27.1224C14.5971 28.4814 16.9328 29.2782 19.2 29.2782C21.4333 29.2782 23.0425 28.3231 24.1043 26.8157C25.1747 25.296 25.7 23.196 25.7 20.9114ZM26.3 20.9114C26.3 23.2765 25.758 25.5102 24.5949 27.1614C23.4232 28.8249 21.6326 29.8782 19.2 29.8782C16.8013 29.8782 14.3368 29.0382 12.4672 27.5978C10.5958 26.1559 9.3 24.094 9.3 21.6544C9.3 19.2893 9.84179 17.0536 11.0047 15.4001C12.1763 13.7343 13.9671 12.6782 16.4 12.6782C18.799 12.6782 21.2637 13.5209 23.1332 14.9638C25.0044 16.408 26.3 18.4721 26.3 20.9114Z" fill="#B4A37C"/>
<path d="M29.2999 19.6923C29.2999 16.7174 27.9124 14.4248 25.7847 12.8665C23.6494 11.3028 20.7646 10.4782 17.7999 10.4782C14.8537 10.4783 12.1811 11.5289 10.3468 13.3067C8.51707 15.0802 7.51026 17.5866 7.89757 20.5392C8.28652 23.5042 9.94258 26.1903 12.1206 28.0626C14.302 29.9378 16.9712 30.9674 19.3644 30.6802C24.2389 30.0952 29.2999 25.6784 29.2999 19.6923ZM29.8999 19.6923C29.8999 26.0306 24.5612 30.6612 19.4359 31.2763C16.8291 31.5891 13.9982 30.4678 11.7296 28.5177C9.45766 26.5646 7.71372 23.7508 7.30265 20.6173C6.88998 17.4715 7.96696 14.7778 9.92921 12.8759C11.887 10.9784 14.7146 9.87825 17.7999 9.87823C20.8669 9.87823 23.8822 10.7298 26.139 12.3825C28.4033 14.0407 29.8999 16.505 29.8999 19.6923Z" fill="#B4A37C"/>
<path d="M10.4684 9.88135C13.0956 7.50668 16.4644 6.44259 19.5086 7.70089C22.3818 8.8885 25.7313 10.0178 28.2633 11.6716C29.5362 12.503 30.6251 13.4799 31.3563 14.6853C32.0906 15.8959 32.4545 17.3214 32.2988 19.0278C31.9961 22.347 31.0362 25.9467 29.1695 28.6755C27.2941 31.417 24.4957 33.2843 20.5602 33.0778C18.6639 32.9784 17.1604 32.9278 15.9719 32.8528C14.7821 32.7777 13.8677 32.6762 13.1367 32.4665C12.3944 32.2535 11.8355 31.9272 11.3605 31.4052C10.8942 30.8926 10.5218 30.2054 10.125 29.2985C9.35185 27.5316 8.28268 26.2386 7.36055 24.8681C6.44516 23.5075 5.7 22.0977 5.7 20.1814V20.1743L5.70039 20.1669C5.90435 15.9841 7.83781 12.2591 10.4684 9.88135ZM19.2793 8.25557C16.5175 7.114 13.3889 8.05019 10.8707 10.3263C8.35753 12.5979 6.49803 16.1713 6.3 20.1884C6.30176 21.924 6.96857 23.211 7.8582 24.5333C8.74223 25.8472 9.87296 27.225 10.675 29.0579C11.0658 29.951 11.4063 30.5638 11.8043 31.0013C12.1937 31.4292 12.6507 31.703 13.3023 31.8899C13.9654 32.0802 14.823 32.1791 16.0098 32.254C17.1979 32.329 18.6756 32.3781 20.5914 32.4786C24.28 32.6721 26.8936 30.9396 28.6742 28.3368C30.4636 25.7212 31.4039 22.2317 31.7012 18.9731C31.8455 17.3908 31.5092 16.0939 30.8434 14.9962C30.1743 13.8933 29.1629 12.9758 27.9352 12.1739C25.4657 10.561 22.2121 9.46785 19.2793 8.25557Z" fill="#B4A37C"/>
<path d="M10.1793 8.19503C13.2929 5.36938 17.257 4.04504 20.7488 5.48917C24.0642 6.86036 27.9167 8.15971 30.8297 10.0634C32.2931 11.0198 33.5419 12.1416 34.3797 13.5235C35.2206 14.9107 35.6379 16.5445 35.4594 18.5024C35.1104 22.3297 33.9043 26.5706 31.6602 29.806C29.4094 33.0508 26.1007 35.2975 21.5805 35.0603C19.3939 34.9455 17.6632 34.8874 16.2938 34.8009C14.923 34.7143 13.8735 34.5975 13.0363 34.3571C12.1878 34.1135 11.5513 33.7413 11.0105 33.1466C10.4784 32.5614 10.0521 31.7747 9.59531 30.7302C8.70217 28.6878 7.46518 27.1905 6.40547 25.6146C5.35257 24.0487 4.50004 22.4326 4.5 20.2368V20.2294L4.50039 20.222C4.73501 15.4082 7.05992 11.0259 10.1793 8.19503ZM20.5195 6.04385C17.321 4.72098 13.5984 5.90262 10.5828 8.63917C7.5747 11.369 5.32847 15.6022 5.1 20.2435C5.10173 22.2588 5.87629 23.7521 6.90352 25.2798C7.92514 26.7991 9.22291 28.3815 10.1449 30.4899C10.5957 31.5207 10.9908 32.233 11.4547 32.7431C11.9099 33.2436 12.4442 33.563 13.202 33.7806C13.9712 34.0014 14.9638 34.1157 16.3316 34.2021C17.7008 34.2885 19.4056 34.3452 21.6117 34.461C25.877 34.6849 29.005 32.581 31.1672 29.4638C33.3359 26.3371 34.5192 22.2045 34.8617 18.4478C35.0289 16.6137 34.6393 15.1088 33.8668 13.8345C33.0911 12.5549 31.9198 11.4922 30.5016 10.5653C27.6511 8.70254 23.8946 7.43972 20.5195 6.04385Z" fill="#B4A37C"/>
</svg>
