<svg width="40" height="40" viewBox="0 0 40 40" fill="none" xmlns="http://www.w3.org/2000/svg">
<path d="M24.7437 18.6999H22.4562C22.0215 18.6999 21.6156 18.9172 21.3745 19.2788L19.9999 21.3409L18.6253 19.2788C18.3842 18.9172 17.9783 18.6999 17.5437 18.6999H15.2562C14.8215 18.6999 14.4156 18.9172 14.1745 19.2788L14.1183 19.3632C13.9759 19.5767 13.8999 19.8276 13.8999 20.0843V29.1999H13.2999V20.0843C13.2999 19.7092 13.411 19.3425 13.619 19.0304L13.6753 18.946C14.0277 18.4174 14.6209 18.0999 15.2562 18.0999H17.5437C18.1789 18.0999 18.7721 18.4174 19.1245 18.946L19.9999 20.2593L20.8753 18.946C21.2277 18.4174 21.8209 18.0999 22.4562 18.0999H24.7437C25.3789 18.0999 25.9721 18.4174 26.3245 18.946L26.3808 19.0304C26.5888 19.3425 26.6999 19.7092 26.6999 20.0843V29.1999H26.0999V20.0843C26.0999 19.8276 26.0239 19.5767 25.8815 19.3632L25.8253 19.2788C25.5842 18.9172 25.1783 18.6999 24.7437 18.6999Z" fill="#B4A37C"/>
<path d="M10.3999 19.4999H8.85615C8.42151 19.4999 8.01561 19.7172 7.77451 20.0788L7.71826 20.1632C7.57591 20.3767 7.49992 20.6276 7.4999 20.8843L7.4999 26.7999H6.8999L6.8999 20.8843C6.89992 20.5092 7.01098 20.1425 7.21904 19.8304L7.27529 19.746C7.62767 19.2174 8.2209 18.8999 8.85615 18.8999H10.3999C10.9979 18.8999 11.561 19.1816 11.9198 19.6601L12.6397 20.6198L12.1601 20.98L11.4397 20.0198C11.1942 19.6926 10.809 19.4999 10.3999 19.4999Z" fill="#B4A37C"/>
<path d="M29.5999 19.4999H31.1437C31.5783 19.4999 31.9842 19.7172 32.2253 20.0788L32.2815 20.1632C32.4239 20.3767 32.4999 20.6276 32.4999 20.8843V26.7999H33.0999V20.8843C33.0999 20.5092 32.9888 20.1425 32.7808 19.8304L32.7245 19.746C32.3721 19.2174 31.7789 18.8999 31.1437 18.8999H29.5999C29.0019 18.8999 28.4388 19.1816 28.08 19.6601L27.3601 20.6198L27.8397 20.98L28.5601 20.0198C28.8056 19.6926 29.1908 19.4999 29.5999 19.4999Z" fill="#B4A37C"/>
<path d="M16.0999 21.9999H16.6999V29.1999H16.0999V21.9999Z" fill="#B4A37C"/>
<path d="M23.2999 21.9999H23.8999V29.1999H23.2999V21.9999Z" fill="#B4A37C"/>
<path d="M22.4999 13.9999C22.4999 12.6192 21.3806 11.4999 19.9999 11.4999C18.6192 11.4999 17.4999 12.6192 17.4999 13.9999C17.4999 15.3806 18.6192 16.4999 19.9999 16.4999C21.3806 16.4999 22.4999 15.3806 22.4999 13.9999ZM23.0999 13.9999C23.0999 15.712 21.712 17.0999 19.9999 17.0999C18.2878 17.0999 16.8999 15.712 16.8999 13.9999C16.8999 12.2878 18.2878 10.8999 19.9999 10.8999C21.712 10.8999 23.0999 12.2878 23.0999 13.9999Z" fill="#B4A37C"/>
<path d="M14.4999 15.1999C14.4999 14.0401 13.5597 13.0999 12.3999 13.0999C11.2401 13.0999 10.2999 14.0401 10.2999 15.1999C10.2999 16.3597 11.2401 17.2999 12.3999 17.2999C13.5597 17.2999 14.4999 16.3597 14.4999 15.1999ZM15.0999 15.1999C15.0999 16.6911 13.8911 17.8999 12.3999 17.8999C10.9087 17.8999 9.6999 16.6911 9.6999 15.1999C9.6999 13.7087 10.9087 12.4999 12.3999 12.4999C13.8911 12.4999 15.0999 13.7087 15.0999 15.1999Z" fill="#B4A37C"/>
<path d="M29.6999 15.1999C29.6999 14.0401 28.7597 13.0999 27.5999 13.0999C26.4401 13.0999 25.4999 14.0401 25.4999 15.1999C25.4999 16.3597 26.4401 17.2999 27.5999 17.2999C28.7597 17.2999 29.6999 16.3597 29.6999 15.1999ZM30.2999 15.1999C30.2999 16.6911 29.0911 17.8999 27.5999 17.8999C26.1087 17.8999 24.8999 16.6911 24.8999 15.1999C24.8999 13.7087 26.1087 12.4999 27.5999 12.4999C29.0911 12.4999 30.2999 13.7087 30.2999 15.1999Z" fill="#B4A37C"/>
</svg>
