<svg width="40" height="40" fill="none" xmlns="http://www.w3.org/2000/svg" viewBox="0 0 40 40">

<g id="menu">
<path d="M0 16H40V18H0V16Z" />
<path d="M12 10H40V12H12V10Z" />
<path d="M0 28H27V30H0V28Z" />
<path d="M0 22H40V24H0V22Z" />
</g>

<g id="plus">
<path d="M7 19H33V21H7V19Z" />
<path d="M19 33V7H21V33H19Z" />
</g>

<g id="minus">
<path d="M7 19H33V21H7V19Z" />
</g>

<g id="close">
<path d="M11.5146 10.1006L29.8994 28.4854L28.4852 29.8996L10.1004 11.5148L11.5146 10.1006Z" />
<path d="M10.1006 28.4854L28.4854 10.1006L29.8996 11.5148L11.5148 29.8996L10.1006 28.4854Z" />
</g>

<g id="link">
<path d="M16 10H30V24H28V12H16V10Z" />
<path d="M12 26.5564L27.5563 11L28.9706 12.4143L13.4142 27.9706L12 26.5564Z" />
</g>

<g id="arrow-down">
<path d="M29.8989 21.8994L19.9994 31.7989L10.0999 21.8994L11.5141 20.4852L19.9994 28.9705L28.4847 20.4852L29.8989 21.8994Z" />
<path d="M19 30V8H21V30H19Z" />
</g>

<g id="disc">
<circle cx="20" cy="20" r="6" />
</g>

<g id="legacy">
<path d="M18.1 22.3782C18.1 21.6603 17.518 21.0782 16.8 21.0782C16.082 21.0782 15.5 21.6603 15.5 22.3782C15.5 23.0962 16.082 23.6782 16.8 23.6782C17.518 23.6782 18.1 23.0962 18.1 22.3782ZM18.7 22.3782C18.7 23.4276 17.8493 24.2782 16.8 24.2782C15.7507 24.2782 14.9 23.4276 14.9 22.3782C14.9 21.3289 15.7507 20.4782 16.8 20.4782C17.8493 20.4782 18.7 21.3289 18.7 22.3782Z" />
<path d="M20.1 22.1782C20.1 21.3159 19.8002 20.706 19.3137 20.3056C18.8186 19.898 18.0941 19.6782 17.2 19.6782C16.305 19.6782 15.4697 19.8989 14.8676 20.32C14.2758 20.734 13.9 21.3454 13.9 22.1782C13.9 22.9995 14.3657 23.771 15.084 24.3485C15.8018 24.9256 16.7366 25.2782 17.6 25.2782C18.4473 25.2782 19.0577 24.9397 19.4648 24.4013C19.8797 23.8526 20.1 23.0727 20.1 22.1782ZM20.7 22.1782C20.7 23.1615 20.459 24.0815 19.9434 24.7634C19.4199 25.4555 18.6304 25.8782 17.6 25.8782C16.5856 25.8782 15.5206 25.4696 14.7078 24.8161C13.8956 24.1631 13.3 23.2347 13.3 22.1782C13.3 21.1333 13.7852 20.3448 14.5238 19.8282C15.2522 19.3188 16.2172 19.0782 17.2 19.0782C18.1836 19.0782 19.0595 19.3193 19.6949 19.8423C20.339 20.3724 20.7 21.1628 20.7 22.1782Z" />
<path d="M22.1 22.1329C22.1 20.7809 21.7841 19.8354 21.166 19.2239C20.5472 18.6118 19.5689 18.2782 18.1176 18.2782C16.6668 18.2782 15.2993 18.612 14.3047 19.2618C13.3205 19.9049 12.7 20.855 12.7 22.1329C12.7 23.3998 13.4684 24.5819 14.6383 25.4606C15.8059 26.3377 17.3319 26.8782 18.7531 26.8782C20.1528 26.8782 20.9585 26.3575 21.4363 25.5481C21.9325 24.7077 22.1 23.5148 22.1 22.1329ZM22.7 22.1329C22.7 23.5374 22.5349 24.8677 21.9531 25.8532C21.3531 26.8696 20.3354 27.4782 18.7531 27.4782C17.192 27.4782 15.541 26.8893 14.2777 25.9403C13.0168 24.9931 12.1 23.6524 12.1 22.1329C12.1001 20.6246 12.8472 19.4972 13.9762 18.7595C15.0947 18.0286 16.5862 17.6782 18.1176 17.6782C19.6485 17.6782 20.8115 18.0288 21.5883 18.7974C22.3658 19.5666 22.7 20.6987 22.7 22.1329Z" />
<path d="M24.1 21.1782C24.1 19.377 23.4694 18.0674 22.4176 17.2017C21.3572 16.3289 19.833 15.8782 18 15.8782C14.3723 15.8782 11.5 18.2238 11.5 21.7782C11.5 25.3148 14.9513 27.8782 18.6 27.8782C20.3807 27.8782 21.7443 27.1134 22.6703 25.904C23.6023 24.6868 24.1 23.0053 24.1 21.1782ZM24.7 21.1782C24.7 23.1066 24.1755 24.925 23.1465 26.2689C22.1114 27.6206 20.5748 28.4782 18.6 28.4782C14.7376 28.4782 10.9 25.7527 10.9 21.7782C10.9 17.8216 14.1166 15.2782 18 15.2782C19.9225 15.2782 21.5981 15.7501 22.7988 16.7384C24.0082 17.7338 24.7 19.2239 24.7 21.1782Z" />
<path d="M25.7 20.9114C25.7 18.7013 24.5286 16.7988 22.7664 15.4388C21.0024 14.0774 18.667 13.2782 16.4 13.2782C14.167 13.2782 12.5576 14.2356 11.4957 15.7454C10.4252 17.2676 9.9 19.3698 9.9 21.6544C9.9 23.8645 11.0712 25.7648 12.8332 27.1224C14.5971 28.4814 16.9328 29.2782 19.2 29.2782C21.4333 29.2782 23.0425 28.3231 24.1043 26.8157C25.1747 25.296 25.7 23.196 25.7 20.9114ZM26.3 20.9114C26.3 23.2765 25.758 25.5102 24.5949 27.1614C23.4232 28.8249 21.6326 29.8782 19.2 29.8782C16.8013 29.8782 14.3368 29.0382 12.4672 27.5978C10.5958 26.1559 9.3 24.094 9.3 21.6544C9.3 19.2893 9.84179 17.0536 11.0047 15.4001C12.1763 13.7343 13.9671 12.6782 16.4 12.6782C18.799 12.6782 21.2637 13.5209 23.1332 14.9638C25.0044 16.408 26.3 18.4721 26.3 20.9114Z" />
<path d="M29.2999 19.6923C29.2999 16.7174 27.9124 14.4248 25.7847 12.8665C23.6494 11.3028 20.7646 10.4782 17.7999 10.4782C14.8537 10.4783 12.1811 11.5289 10.3468 13.3067C8.51707 15.0802 7.51026 17.5866 7.89757 20.5392C8.28652 23.5042 9.94258 26.1903 12.1206 28.0626C14.302 29.9378 16.9712 30.9674 19.3644 30.6802C24.2389 30.0952 29.2999 25.6784 29.2999 19.6923ZM29.8999 19.6923C29.8999 26.0306 24.5612 30.6612 19.4359 31.2763C16.8291 31.5891 13.9982 30.4678 11.7296 28.5177C9.45766 26.5646 7.71372 23.7508 7.30265 20.6173C6.88998 17.4715 7.96696 14.7778 9.92921 12.8759C11.887 10.9784 14.7146 9.87825 17.7999 9.87823C20.8669 9.87823 23.8822 10.7298 26.139 12.3825C28.4033 14.0407 29.8999 16.505 29.8999 19.6923Z" />
<path d="M10.4684 9.88135C13.0956 7.50668 16.4644 6.44259 19.5086 7.70089C22.3818 8.8885 25.7313 10.0178 28.2633 11.6716C29.5362 12.503 30.6251 13.4799 31.3563 14.6853C32.0906 15.8959 32.4545 17.3214 32.2988 19.0278C31.9961 22.347 31.0362 25.9467 29.1695 28.6755C27.2941 31.417 24.4957 33.2843 20.5602 33.0778C18.6639 32.9784 17.1604 32.9278 15.9719 32.8528C14.7821 32.7777 13.8677 32.6762 13.1367 32.4665C12.3944 32.2535 11.8355 31.9272 11.3605 31.4052C10.8942 30.8926 10.5218 30.2054 10.125 29.2985C9.35185 27.5316 8.28268 26.2386 7.36055 24.8681C6.44516 23.5075 5.7 22.0977 5.7 20.1814V20.1743L5.70039 20.1669C5.90435 15.9841 7.83781 12.2591 10.4684 9.88135ZM19.2793 8.25557C16.5175 7.114 13.3889 8.05019 10.8707 10.3263C8.35753 12.5979 6.49803 16.1713 6.3 20.1884C6.30176 21.924 6.96857 23.211 7.8582 24.5333C8.74223 25.8472 9.87296 27.225 10.675 29.0579C11.0658 29.951 11.4063 30.5638 11.8043 31.0013C12.1937 31.4292 12.6507 31.703 13.3023 31.8899C13.9654 32.0802 14.823 32.1791 16.0098 32.254C17.1979 32.329 18.6756 32.3781 20.5914 32.4786C24.28 32.6721 26.8936 30.9396 28.6742 28.3368C30.4636 25.7212 31.4039 22.2317 31.7012 18.9731C31.8455 17.3908 31.5092 16.0939 30.8434 14.9962C30.1743 13.8933 29.1629 12.9758 27.9352 12.1739C25.4657 10.561 22.2121 9.46785 19.2793 8.25557Z" />
<path d="M10.1793 8.19503C13.2929 5.36938 17.257 4.04504 20.7488 5.48917C24.0642 6.86036 27.9167 8.15971 30.8297 10.0634C32.2931 11.0198 33.5419 12.1416 34.3797 13.5235C35.2206 14.9107 35.6379 16.5445 35.4594 18.5024C35.1104 22.3297 33.9043 26.5706 31.6602 29.806C29.4094 33.0508 26.1007 35.2975 21.5805 35.0603C19.3939 34.9455 17.6632 34.8874 16.2938 34.8009C14.923 34.7143 13.8735 34.5975 13.0363 34.3571C12.1878 34.1135 11.5513 33.7413 11.0105 33.1466C10.4784 32.5614 10.0521 31.7747 9.59531 30.7302C8.70217 28.6878 7.46518 27.1905 6.40547 25.6146C5.35257 24.0487 4.50004 22.4326 4.5 20.2368V20.2294L4.50039 20.222C4.73501 15.4082 7.05992 11.0259 10.1793 8.19503ZM20.5195 6.04385C17.321 4.72098 13.5984 5.90262 10.5828 8.63917C7.5747 11.369 5.32847 15.6022 5.1 20.2435C5.10173 22.2588 5.87629 23.7521 6.90352 25.2798C7.92514 26.7991 9.22291 28.3815 10.1449 30.4899C10.5957 31.5207 10.9908 32.233 11.4547 32.7431C11.9099 33.2436 12.4442 33.563 13.202 33.7806C13.9712 34.0014 14.9638 34.1157 16.3316 34.2021C17.7008 34.2885 19.4056 34.3452 21.6117 34.461C25.877 34.6849 29.005 32.581 31.1672 29.4638C33.3359 26.3371 34.5192 22.2045 34.8617 18.4478C35.0289 16.6137 34.6393 15.1088 33.8668 13.8345C33.0911 12.5549 31.9198 11.4922 30.5016 10.5653C27.6511 8.70254 23.8946 7.43972 20.5195 6.04385Z" />
</g>

<g id="people">
<path d="M24.7437 18.6999H22.4562C22.0215 18.6999 21.6156 18.9172 21.3745 19.2788L19.9999 21.3409L18.6253 19.2788C18.3842 18.9172 17.9783 18.6999 17.5437 18.6999H15.2562C14.8215 18.6999 14.4156 18.9172 14.1745 19.2788L14.1183 19.3632C13.9759 19.5767 13.8999 19.8276 13.8999 20.0843V29.1999H13.2999V20.0843C13.2999 19.7092 13.411 19.3425 13.619 19.0304L13.6753 18.946C14.0277 18.4174 14.6209 18.0999 15.2562 18.0999H17.5437C18.1789 18.0999 18.7721 18.4174 19.1245 18.946L19.9999 20.2593L20.8753 18.946C21.2277 18.4174 21.8209 18.0999 22.4562 18.0999H24.7437C25.3789 18.0999 25.9721 18.4174 26.3245 18.946L26.3808 19.0304C26.5888 19.3425 26.6999 19.7092 26.6999 20.0843V29.1999H26.0999V20.0843C26.0999 19.8276 26.0239 19.5767 25.8815 19.3632L25.8253 19.2788C25.5842 18.9172 25.1783 18.6999 24.7437 18.6999Z" />
<path d="M10.3999 19.4999H8.85615C8.42151 19.4999 8.01561 19.7172 7.77451 20.0788L7.71826 20.1632C7.57591 20.3767 7.49992 20.6276 7.4999 20.8843L7.4999 26.7999H6.8999L6.8999 20.8843C6.89992 20.5092 7.01098 20.1425 7.21904 19.8304L7.27529 19.746C7.62767 19.2174 8.2209 18.8999 8.85615 18.8999H10.3999C10.9979 18.8999 11.561 19.1816 11.9198 19.6601L12.6397 20.6198L12.1601 20.98L11.4397 20.0198C11.1942 19.6926 10.809 19.4999 10.3999 19.4999Z" />
<path d="M29.5999 19.4999H31.1437C31.5783 19.4999 31.9842 19.7172 32.2253 20.0788L32.2815 20.1632C32.4239 20.3767 32.4999 20.6276 32.4999 20.8843V26.7999H33.0999V20.8843C33.0999 20.5092 32.9888 20.1425 32.7808 19.8304L32.7245 19.746C32.3721 19.2174 31.7789 18.8999 31.1437 18.8999H29.5999C29.0019 18.8999 28.4388 19.1816 28.08 19.6601L27.3601 20.6198L27.8397 20.98L28.5601 20.0198C28.8056 19.6926 29.1908 19.4999 29.5999 19.4999Z" />
<path d="M16.0999 21.9999H16.6999V29.1999H16.0999V21.9999Z" />
<path d="M23.2999 21.9999H23.8999V29.1999H23.2999V21.9999Z" />
<path d="M22.4999 13.9999C22.4999 12.6192 21.3806 11.4999 19.9999 11.4999C18.6192 11.4999 17.4999 12.6192 17.4999 13.9999C17.4999 15.3806 18.6192 16.4999 19.9999 16.4999C21.3806 16.4999 22.4999 15.3806 22.4999 13.9999ZM23.0999 13.9999C23.0999 15.712 21.712 17.0999 19.9999 17.0999C18.2878 17.0999 16.8999 15.712 16.8999 13.9999C16.8999 12.2878 18.2878 10.8999 19.9999 10.8999C21.712 10.8999 23.0999 12.2878 23.0999 13.9999Z" />
<path d="M14.4999 15.1999C14.4999 14.0401 13.5597 13.0999 12.3999 13.0999C11.2401 13.0999 10.2999 14.0401 10.2999 15.1999C10.2999 16.3597 11.2401 17.2999 12.3999 17.2999C13.5597 17.2999 14.4999 16.3597 14.4999 15.1999ZM15.0999 15.1999C15.0999 16.6911 13.8911 17.8999 12.3999 17.8999C10.9087 17.8999 9.6999 16.6911 9.6999 15.1999C9.6999 13.7087 10.9087 12.4999 12.3999 12.4999C13.8911 12.4999 15.0999 13.7087 15.0999 15.1999Z" />
<path d="M29.6999 15.1999C29.6999 14.0401 28.7597 13.0999 27.5999 13.0999C26.4401 13.0999 25.4999 14.0401 25.4999 15.1999C25.4999 16.3597 26.4401 17.2999 27.5999 17.2999C28.7597 17.2999 29.6999 16.3597 29.6999 15.1999ZM30.2999 15.1999C30.2999 16.6911 29.0911 17.8999 27.5999 17.8999C26.1087 17.8999 24.8999 16.6911 24.8999 15.1999C24.8999 13.7087 26.1087 12.4999 27.5999 12.4999C29.0911 12.4999 30.2999 13.7087 30.2999 15.1999Z" />
</g>

<g id="buildings">
<path d="M2 28.1H12.1L12.1 16.1L19.9 16.1V28.7H2L2 28.1ZM19.3 28.1V16.7L12.7 16.7L12.7 28.1H19.3Z" />
<path d="M38 28.4H31.8293L34.9613 26.4032L35.1 26.3145V23.3L21.7 23.3V28.7H22.3V23.9L34.5 23.9V25.9852L29.7715 29H38V28.4Z" />
<path d="M17.9 22.4387L4.5 24.9512L4.5 28.7H5.1L5.1 25.4493L17.3 23.1618V28.7H17.9V22.4387Z" />
<path d="M24.1 24.8H24.7V28.7H24.1V24.8Z" />
<path d="M22.9 24.8H23.5V28.7H22.9V24.8Z" />
<path d="M25.7 16.1H30.3V23.2H29.7V16.7H26.3V23.2H25.7V16.1Z" />
<path d="M19.5203 11.9L16.7 11.9V16H16.1V11.3L19.5203 11.3C20.9034 11.3 22.157 12.1147 22.7188 13.3786L23.9984 16.2579C24.1973 16.7053 24.3 17.1897 24.3 17.6793V23.2H23.7V17.6793C23.7 17.2736 23.6148 16.8724 23.45 16.5016L22.1703 13.6223C21.7048 12.5751 20.6663 11.9 19.5203 11.9Z" />
<path d="M14 18H14.6V19.2H14V18Z" />
<path d="M17.6 12.8H18.2V13.4H17.6V12.8Z" />
<path d="M32 24.8H33.6V25.4H32V24.8Z" />
<path d="M27.2 17.6H28.4V18.2H27.2V17.6Z" />
<path d="M17.6 14H18.8V14.6H17.6V14Z" />
</g>

</svg>
