<svg width="120" height="40" viewBox="0 0 120 40" fill="none" xmlns="http://www.w3.org/2000/svg">
<path d="M91.9638 33.2072L90.5366 33.6441L90.3309 32.9608L92.1849 32.3305H92.8201V39.8691H91.9638V33.2072Z" fill="#14110F"/>
<path d="M97.3082 39.9969C96.8093 39.9969 96.3765 39.9095 96.0105 39.7347C95.641 39.56 95.2964 39.3416 94.9707 39.0764L95.4704 38.4242C95.7799 38.6957 96.0833 38.8954 96.3799 39.0295C96.6765 39.1606 96.9928 39.2261 97.3339 39.2261C97.6751 39.2261 97.9845 39.145 98.2657 38.9797C98.5468 38.8143 98.7868 38.5896 98.9857 38.2994C99.1846 38.0092 99.3363 37.666 99.4408 37.2635C99.5446 36.861 99.5951 36.421 99.5857 35.9436C99.3774 36.2712 99.0997 36.552 98.7517 36.7892C98.4045 37.0264 97.9682 37.1418 97.4411 37.1418C97.0528 37.1418 96.6953 37.0856 96.3705 36.9701C96.0447 36.8579 95.767 36.6956 95.5364 36.4896C95.3059 36.2837 95.1259 36.0372 94.9964 35.7533C94.867 35.4694 94.8001 35.1573 94.8001 34.8234V34.8016C94.8001 34.4459 94.867 34.112 94.9999 33.8031C95.1319 33.4942 95.3187 33.2227 95.5587 32.995C95.7953 32.7672 96.0833 32.5862 96.4176 32.4552C96.7528 32.3241 97.1222 32.2585 97.5268 32.2585C97.9588 32.2585 98.3385 32.3272 98.6634 32.4613C98.9891 32.5956 99.2728 32.7859 99.5197 33.0293C99.8069 33.3132 100.037 33.6814 100.208 34.1307C100.379 34.58 100.464 35.1792 100.464 35.928V35.9498C100.464 36.5427 100.388 37.0856 100.236 37.5849C100.085 38.0841 99.8703 38.5116 99.5926 38.8673C99.314 39.223 98.9823 39.5008 98.5974 39.7004C98.2117 39.9001 97.7822 40 97.3151 40L97.3082 39.9969ZM97.5362 36.4023C97.8234 36.4023 98.0857 36.3555 98.3188 36.2588C98.5528 36.162 98.7517 36.0372 98.9163 35.8781C99.0774 35.722 99.2034 35.5411 99.2891 35.3383C99.374 35.1355 99.4186 34.9264 99.4186 34.7142V34.6924C99.4186 34.4583 99.3714 34.2368 99.2763 34.0309C99.1811 33.825 99.0517 33.6439 98.8811 33.4911C98.7105 33.3382 98.5091 33.2165 98.2691 33.126C98.0317 33.0355 97.7694 32.9918 97.4882 32.9918C97.2071 32.9918 96.9516 33.0387 96.7245 33.1354C96.4965 33.2321 96.307 33.36 96.1493 33.5191C95.9942 33.6783 95.8742 33.8655 95.7919 34.0746C95.7104 34.2836 95.6693 34.5083 95.6693 34.7423V34.7641C95.6693 34.9981 95.713 35.2197 95.8047 35.4225C95.8965 35.6253 96.0233 35.8001 96.1836 35.9405C96.3448 36.084 96.5445 36.1964 96.7751 36.2775C97.0056 36.3586 97.2576 36.3992 97.5328 36.3992L97.5362 36.4023Z" fill="#14110F"/>
<path d="M104.94 39.9966C104.523 39.9966 104.144 39.928 103.809 39.7938C103.474 39.6597 103.187 39.4725 102.95 39.2384C102.798 39.0886 102.662 38.9264 102.546 38.7454C102.426 38.5675 102.328 38.3647 102.249 38.137C102.169 37.9092 102.107 37.6502 102.065 37.3569C102.021 37.0636 101.999 36.7266 101.999 36.3396V36.3178C101.999 35.7468 102.069 35.2163 102.21 34.7202C102.353 34.2241 102.558 33.7967 102.827 33.4316C103.098 33.0696 103.427 32.7826 103.818 32.5704C104.207 32.3613 104.652 32.2552 105.148 32.2552C105.603 32.2552 106.008 32.3301 106.361 32.4799C106.715 32.6297 107.056 32.8387 107.388 33.1102L106.889 33.7623C106.608 33.5283 106.326 33.3443 106.045 33.2163C105.764 33.0884 105.451 33.0228 105.104 33.0228C104.756 33.0228 104.447 33.1039 104.172 33.2693C103.897 33.4347 103.667 33.6625 103.474 33.9526C103.282 34.246 103.136 34.5924 103.035 34.9948C102.934 35.3974 102.883 35.8404 102.883 36.3272C102.984 36.1774 103.102 36.0308 103.234 35.8904C103.367 35.75 103.522 35.6283 103.698 35.5222C103.875 35.4192 104.075 35.335 104.292 35.2694C104.514 35.2039 104.76 35.1727 105.035 35.1727C105.388 35.1727 105.723 35.2257 106.042 35.335C106.361 35.4442 106.636 35.597 106.876 35.7968C107.112 35.9965 107.303 36.2398 107.444 36.5269C107.587 36.814 107.656 37.1322 107.656 37.4817V37.5035C107.656 37.8686 107.587 38.2025 107.444 38.5051C107.303 38.8079 107.112 39.0699 106.87 39.2914C106.626 39.513 106.342 39.6846 106.01 39.8125C105.678 39.9373 105.322 39.9997 104.94 39.9997V39.9966ZM104.949 39.2571C105.23 39.2571 105.483 39.2134 105.708 39.1229C105.931 39.0325 106.121 38.9108 106.282 38.7579C106.44 38.605 106.563 38.4209 106.651 38.2118C106.737 37.9997 106.782 37.7781 106.782 37.541V37.5192C106.782 37.2914 106.737 37.0761 106.645 36.8826C106.554 36.6861 106.428 36.5144 106.266 36.374C106.105 36.2305 105.909 36.1181 105.682 36.037C105.455 35.9559 105.205 35.9122 104.93 35.9122C104.656 35.9122 104.39 35.959 104.156 36.0526C103.923 36.1462 103.721 36.2679 103.556 36.4239C103.389 36.5768 103.262 36.7516 103.171 36.9481C103.08 37.1447 103.035 37.3475 103.035 37.5535V37.5753C103.035 37.8125 103.082 38.034 103.177 38.2399C103.272 38.4459 103.402 38.6268 103.572 38.7766C103.743 38.9264 103.944 39.0449 104.178 39.1292C104.412 39.2166 104.671 39.2571 104.952 39.2571H104.949Z" fill="#14110F"/>
<path d="M111.639 39.9969C111.14 39.9969 110.707 39.9095 110.341 39.7347C109.971 39.56 109.627 39.3416 109.302 39.0764L109.801 38.4242C110.111 38.6957 110.413 38.8954 110.711 39.0295C111.007 39.1606 111.324 39.2261 111.665 39.2261C112.005 39.2261 112.315 39.145 112.597 38.9797C112.878 38.8143 113.118 38.5896 113.317 38.2994C113.516 38.0092 113.667 37.666 113.771 37.2635C113.876 36.861 113.926 36.421 113.917 35.9436C113.708 36.2712 113.43 36.552 113.083 36.7892C112.736 37.0264 112.299 37.1418 111.772 37.1418C111.384 37.1418 111.026 37.0856 110.701 36.9701C110.376 36.8579 110.098 36.6956 109.867 36.4896C109.637 36.2837 109.457 36.0372 109.327 35.7533C109.198 35.4694 109.131 35.1573 109.131 34.8234V34.8016C109.131 34.4459 109.198 34.112 109.33 33.8031C109.463 33.4942 109.649 33.2227 109.89 32.995C110.126 32.7672 110.413 32.5862 110.749 32.4552C111.083 32.3241 111.453 32.2585 111.857 32.2585C112.29 32.2585 112.669 32.3272 112.994 32.4613C113.319 32.5956 113.604 32.7859 113.851 33.0293C114.138 33.3132 114.368 33.6814 114.539 34.1307C114.71 34.58 114.794 35.1792 114.794 35.928V35.9498C114.794 36.5427 114.719 37.0856 114.567 37.5849C114.416 38.0841 114.201 38.5116 113.923 38.8673C113.645 39.223 113.313 39.5008 112.928 39.7004C112.543 39.9001 112.113 40 111.645 40L111.639 39.9969ZM111.866 36.4023C112.154 36.4023 112.417 36.3555 112.65 36.2588C112.884 36.162 113.083 36.0372 113.247 35.8781C113.408 35.722 113.534 35.5411 113.62 35.3383C113.705 35.1355 113.75 34.9264 113.75 34.7142V34.6924C113.75 34.4583 113.702 34.2368 113.607 34.0309C113.512 33.825 113.383 33.6439 113.212 33.4911C113.042 33.3382 112.839 33.2165 112.599 33.126C112.363 33.0355 112.1 32.9918 111.819 32.9918C111.538 32.9918 111.283 33.0387 111.055 33.1354C110.827 33.2321 110.638 33.36 110.48 33.5191C110.325 33.6783 110.205 33.8655 110.123 34.0746C110.041 34.2836 110 34.5083 110 34.7423V34.7641C110 34.9981 110.044 35.2197 110.136 35.4225C110.227 35.6253 110.353 35.8001 110.515 35.9405C110.676 36.084 110.875 36.1964 111.105 36.2775C111.336 36.3586 111.589 36.3992 111.864 36.3992L111.866 36.4023Z" fill="#14110F"/>
<path d="M115.752 3.43909C115.752 4.4719 116.601 5.31127 117.647 5.31127C118.693 5.31127 119.542 4.4719 119.542 3.43909C119.542 2.40628 118.693 1.56692 117.647 1.56692C116.601 1.56692 115.752 2.40628 115.752 3.43909ZM115.291 3.43909C115.291 2.15354 116.342 1.11136 117.644 1.11136C118.945 1.11136 120 2.15042 120 3.43598C120 4.72153 118.948 5.7637 117.647 5.7637C116.346 5.7637 115.291 4.72465 115.291 3.43909Z" fill="#14110F"/>
<path fill-rule="evenodd" clip-rule="evenodd" d="M117.246 2.67186H117.783C118.001 2.67186 118.131 2.75922 118.131 2.96204C118.131 3.16485 118.001 3.27407 117.783 3.27407H117.246V2.67186ZM117.246 3.65786H117.893C118.058 3.65786 118.089 3.83884 118.102 3.96676C118.124 4.17583 118.146 4.38177 118.187 4.58458H118.737C118.642 4.45665 118.62 4.18518 118.601 4.03853C118.557 3.72026 118.56 3.48936 118.174 3.44568V3.43944C118.462 3.38016 118.658 3.18357 118.658 2.88403C118.658 2.41911 118.251 2.28806 117.849 2.28806H116.744V4.58147H117.243V3.65474L117.246 3.65786Z" fill="#14110F"/>
<path d="M7.18593 8.52883C7.18593 8.52883 7.19541 8.52579 7.19856 8.52265C7.19856 8.03275 7.49547 7.58655 7.95664 7.40869C8.74945 7.09978 10.1677 6.70038 12.1861 6.70038C15.5026 6.70038 15.2784 10.9845 15.2784 10.9845L15.2689 27.2225C15.2689 27.6967 15.6574 28.0837 16.1407 28.0837H20.9608C21.4409 28.0837 21.8326 27.6999 21.8326 27.2256L21.8421 8.68176C21.8421 8.08267 22.2148 7.54286 22.7833 7.34005C23.6046 7.04362 24.9565 6.70038 26.8296 6.70038C30.1461 6.70038 29.9219 10.9845 29.9219 10.9845L29.9124 27.2225C29.9124 27.6967 30.301 28.0837 30.7842 28.0837H35.9265C36.4066 28.0837 36.7983 27.6967 36.7983 27.2225L36.7825 8.96567C36.7983 8.61309 36.7919 8.25117 36.7572 7.87985L36.7415 7.70512C36.4192 3.54267 33.8007 0.703209 28.5889 0.481669C25.4524 0.322535 21.9621 1.01524 18.9929 2.04493C17.6916 1.13069 15.9638 0.581518 13.7875 0.49103C9.68128 0.281971 4.68427 1.53632 0.874945 3.43658C0.347451 3.7018 0.00947599 4.23536 0.00947599 4.81886L0 27.2256C0 27.6999 0.388514 28.0868 0.871791 28.0868H6.32046C6.80058 28.0868 7.19224 27.703 7.19224 27.2287L7.18593 8.52883Z" fill="#14110F"/>
<path d="M62.1464 21.3559C62.1464 20.813 61.84 20.6226 61.382 20.8504C61.3599 20.8629 61.2936 20.9003 61.2714 20.9128C61.1072 21.0096 61.1009 21.0064 60.943 21.0938C60.087 21.5462 59.2058 21.9518 58.2929 22.2764C57.1747 22.654 54.9194 23.278 52.4936 23.3061H52.3104C52.1493 23.3092 51.9724 23.3123 51.7955 23.2811C51.6218 23.2686 51.4512 23.2531 51.2775 23.2312C50.9205 23.1875 50.5668 23.1127 50.232 23.0127L50.1403 22.9909L49.8055 22.8755C49.278 22.6508 48.8075 22.239 48.4758 21.7085C48.46 21.6835 48.4474 21.6617 48.4347 21.6336C48.0809 20.9565 47.7588 19.7209 47.585 18.0734C47.4555 16.6599 47.345 15.443 47.4713 12.9592L47.5598 10.5035C47.5598 10.4817 47.5598 10.4599 47.5661 10.438C47.6198 10.0355 47.6767 9.59557 47.7461 9.11817C48.3242 5.72954 50.7879 4.8153 53.7918 5.11173L53.8581 5.12109L54.0603 5.14917C54.6067 5.2459 55.0553 5.41439 55.4154 5.64529C56.0818 6.05405 56.5461 6.67187 56.6882 7.43633C56.742 7.63915 56.783 7.85757 56.7988 8.08223C56.8809 9.11817 56.8399 10.0667 56.186 10.8936C55.9365 11.19 55.6459 11.4677 55.3522 11.7142C55.3301 11.733 55.3048 11.7517 55.2795 11.7704C54.4361 12.3539 53.5833 12.7689 52.6862 13.084C52.4083 13.1807 52.2282 13.4491 52.2282 13.7393V17.9673C52.2282 18.4135 52.6452 18.7443 53.0842 18.6444C54.2529 18.3791 55.6743 18.0359 56.3408 17.7925C60.8103 16.2605 64.509 13.627 64.4175 8.83731L64.4112 8.65322C64.3701 3.58903 61.0219 0.0506309 53.7855 0.0537511C53.5833 0.0537511 53.3843 0.0568714 53.1885 0.063112C53.0053 0.0568714 52.8157 0.0568714 52.6262 0.0568714C41.3277 0.063112 40.0169 7.55802 40.1148 14.5599C40.1591 17.5928 40.1338 21.9737 41.6752 24.6416C42.4301 25.8241 43.4567 26.6916 44.6285 27.3125C45.8509 27.9771 47.2471 28.3578 48.6779 28.5388C49.3476 28.6293 50.172 28.6885 51.0658 28.7011C52.0419 28.7291 53.021 28.7104 53.9907 28.6106C54.474 28.57 54.9415 28.5139 55.3932 28.4452C55.7249 28.4233 57.0231 28.1238 57.2663 28.0552C57.4748 28.0021 57.6832 27.9491 57.8917 27.8898C59.2026 27.5591 60.4344 27.1128 61.562 26.573C61.9348 26.3952 62.1622 26.0145 62.1622 25.6088V21.4464" fill="#14110F"/>
<path d="M81.8501 11.5583C81.1742 11.2961 78.8842 10.8374 77.8575 10.6409L77.7565 10.6222C77.3174 10.5348 76.9226 10.4193 76.6099 10.2914L76.5341 10.2602C75.217 9.68914 75.0053 8.87168 74.999 7.82949C74.9927 6.39728 76.3667 5.07429 78.224 5.07117C78.4198 5.07117 78.6725 5.05556 78.8651 5.0618C81.509 5.2303 82.5702 5.81067 84.8634 7.0775C85.1099 7.21792 85.5804 7.46754 85.5804 6.88093V2.07881C85.5804 1.83543 85.4352 1.61078 85.2077 1.51405C82.9967 0.593563 80.672 0.131762 78.2366 0.0911984C76.9321 0.022552 75.337 0.22225 75.0938 0.244092C73.5997 0.44691 72.0204 0.952393 70.8138 1.79175L70.7222 1.85728C70.5011 2.01641 70.2926 2.18803 70.0999 2.37212C68.9186 3.39245 68.0373 4.68737 67.6014 6.14454C67.3298 6.91525 67.1877 7.73588 67.1908 8.58768C67.1339 13.3492 70.1157 15.6583 74.5063 16.6693L77.6207 17.4493C79.6738 17.9954 80.3529 18.7723 80.5898 19.6865C80.7477 20.4074 80.7003 21.1406 80.3561 21.8052C79.8791 22.6259 78.6662 23.2218 77.3522 23.3997C77.21 23.4153 77.0616 23.4247 76.9005 23.4247H76.7995C75.318 23.3966 73.944 23.1095 72.9364 22.8318C71.9319 22.5541 71.3002 22.2827 71.3002 22.2827C70.3716 21.8864 69.2882 21.3122 68.2932 20.7381C67.8826 20.5041 67.3709 20.7974 67.3709 21.2654V25.8865C67.3709 26.1206 67.5066 26.339 67.7215 26.4389C68.846 26.9662 70.0178 27.4093 71.177 27.7961C71.9762 28.0333 72.769 28.2267 73.5428 28.3578C74.4873 28.5326 75.7666 28.673 77.2417 28.7042C77.9523 28.726 78.6504 28.6698 79.6644 28.5575C81.5532 28.2985 83.7263 27.4623 85.0214 26.2267C86.8062 24.6853 88.0979 22.3638 88.0885 19.9518C88.1014 18.8378 88.1134 13.6301 81.8406 11.5583H81.8501Z" fill="#14110F"/>
<path d="M114.526 12.1479C114.526 11.4895 114.536 9.19608 114.536 9.19608C114.526 7.09927 114.192 5.37063 113.42 3.87602C112.018 1.44531 109.476 0.396903 106.823 0.109837C106.181 0.0349509 105.398 -0.00561275 104.542 0.000627804H104.096C103.164 -0.00561275 102.227 0.0349509 101.304 0.159762C100.843 0.209687 100.395 0.278333 99.962 0.356339C99.6363 0.387542 98.408 0.715172 98.1774 0.786938C97.9785 0.843103 97.7788 0.902392 97.5774 0.964798C95.9565 1.42972 94.4753 2.08809 93.1612 2.88376C93.0001 2.9805 92.9049 3.15523 92.9049 3.33933V7.66716C92.9049 8.09775 93.3918 8.35674 93.7578 8.1196L94.1658 7.85438C94.3364 7.74829 94.4976 7.64844 94.6613 7.5517C95.4799 7.08054 96.3199 6.65618 97.1916 6.31295C98.2597 5.91355 100.41 5.23958 102.726 5.15533H102.9L102.972 5.15221C103.035 5.15845 103.102 5.15845 103.171 5.15533H103.303C103.329 5.15533 103.357 5.15533 103.389 5.16469C103.554 5.17405 103.717 5.18341 103.884 5.20525C104.251 5.24582 104.615 5.31758 104.958 5.41432C105.477 5.58281 105.95 5.84179 106.339 6.21623C106.538 6.40344 106.718 6.62187 106.87 6.87149C106.932 6.99005 106.99 7.11799 107.028 7.24592C107.258 7.85749 107.369 8.61884 107.416 9.35831L107.423 9.78271V21.8894C107.423 22.0984 107.303 22.2888 107.11 22.3762C105.196 23.2217 102.713 23.6492 100.679 23.4652C100.524 23.4589 100.315 23.4339 100.284 23.4308C100.116 23.3996 99.9526 23.3622 99.8034 23.3185L99.734 23.3028C99.602 23.2592 99.4726 23.2093 99.3551 23.1562C99.2034 23.0907 99.0645 23.0158 98.9351 22.9315C98.2717 22.5197 97.8079 21.8988 97.6682 21.128C97.6116 20.9221 97.5774 20.7036 97.5576 20.479C97.4762 19.4368 97.5174 18.482 98.168 17.652C98.42 17.3525 98.7105 17.0717 99.008 16.8189C99.0268 16.8033 99.0423 16.7909 99.0611 16.7783C100.221 15.9671 101.43 15.4648 102.707 15.1278C102.943 15.0654 103.111 14.8563 103.111 14.616V10.232C103.111 9.89194 102.795 9.63918 102.461 9.71404C101.219 9.98864 99.302 10.4286 98.4902 10.7281C93.9858 12.2695 90.2074 14.9187 90.132 19.7364V19.9205C90.012 24.3139 92.3838 27.5777 97.6777 28.3858C102.754 29.2034 109.807 27.9084 114.29 25.2094C114.447 25.1126 114.542 24.9441 114.542 24.76C114.542 23.0907 114.539 14.7814 114.524 12.1447L114.526 12.1479Z" fill="#14110F"/>
</svg>
